<svg xmlns="http://www.w3.org/2000/svg" version="1.1" xmlns:xlink="http://www.w3.org/1999/xlink" xmlns:svgjs="http://svgjs.dev/svgjs" width="1500" height="1500" viewBox="0 0 1500 1500"><rect width="1500" height="1500" fill="#000000"></rect><g transform="matrix(0.3779289493575208,0,0,0.3779289493575208,466.8930030255049,250.40485829959516)"><svg viewBox="0 0 140 247" data-background-color="#000000" preserveAspectRatio="xMidYMid meet" height="2646" width="1500" xmlns="http://www.w3.org/2000/svg" xmlns:xlink="http://www.w3.org/1999/xlink"><g id="tight-bounds" transform="matrix(1,0,0,1,-0.08389602717869593,-0.09999999999999432)"><svg viewBox="0 0 140.16779205435736 247.2" height="247.2" width="140.16779205435736"><g><svg viewBox="0 0 178.6388610514286 315.04759977090873" height="247.2" width="140.16779205435736"><g><svg viewBox="0 0 178.6388610514286 315.04759977090873" height="315.04759977090873" width="178.6388610514286"><g id="textblocktransform"><svg viewBox="0 0 178.6388610514286 315.04759977090873" height="315.04759977090873" width="178.6388610514286" id="textblock"><g><svg viewBox="0 0 178.6388610514286 245.672304" height="245.672304" width="178.6388610514286"><g transform="matrix(1,0,0,1,0,0)"><svg width="178.6388610514286" viewBox="4.75 -35 25.45 35" height="245.672304" data-palette-color="url(#dd7e835a-219f-416f-8362-d7ab52a3b82e)"></svg></g></svg></g><g transform="matrix(1,0,0,1,0,303.669638839104)"><svg viewBox="0 0 104.87887532329374 11.377960931804731" height="11.377960931804731" width="104.87887532329374"><g transform="matrix(1,0,0,1,0,0)"><svg width="104.87887532329374" viewBox="4 -39 364.06 39.5" height="11.377960931804731" data-palette-color="url(#9ed62deb-6959-43ab-935f-190463be2e80)"></svg></g></svg></g></svg></g></svg></g></svg></g><defs></defs><mask id="00c74dd6-10de-4220-847b-0760194cedd3"><g id="SvgjsG1053"><svg viewBox="0 0 140.16779205435736 247.2" height="247.2" width="140.16779205435736"><g><svg viewBox="0 0 178.6388610514286 315.04759977090873" height="247.2" width="140.16779205435736"><g><svg viewBox="0 0 178.6388610514286 315.04759977090873" height="315.04759977090873" width="178.6388610514286"><g id="SvgjsG1052"><svg viewBox="0 0 178.6388610514286 315.04759977090873" height="315.04759977090873" width="178.6388610514286" id="SvgjsSvg1051"><g><svg viewBox="0 0 178.6388610514286 245.672304" height="245.672304" width="178.6388610514286"><g transform="matrix(1,0,0,1,0,0)"><svg width="178.6388610514286" viewBox="4.75 -35 25.45 35" height="245.672304" data-palette-color="url(#dd7e835a-219f-416f-8362-d7ab52a3b82e)"><path d="M9.25 0L4.75 0 4.75-35 17.4-35Q20.55-35 22.63-34.08 24.7-33.15 25.95-31.65 27.2-30.15 27.73-28.38 28.25-26.6 28.25-24.9L28.25-24.9Q28.25-22 26.55-19.3 24.85-16.6 21.3-15.3L21.3-15.3 30.2 0 25 0 16.8-14.6 9.25-14.6 9.25 0ZM9.15-31L9.15-18.6 17.4-18.6Q20.15-18.6 21.95-20.43 23.75-22.25 23.75-24.9L23.75-24.9Q23.75-26.5 22.95-27.88 22.15-29.25 20.73-30.13 19.3-31 17.45-31L17.45-31 9.15-31Z" opacity="1" transform="matrix(1,0,0,1,0,0)" fill="white" class="wordmark-text-0" id="SvgjsPath1050"></path></svg></g></svg></g><g transform="matrix(1,0,0,1,0,303.669638839104)"><svg viewBox="0 0 104.87887532329374 11.377960931804731" height="11.377960931804731" width="104.87887532329374"><g transform="matrix(1,0,0,1,0,0)"><svg width="104.87887532329374" viewBox="4 -39 364.06 39.5" height="11.377960931804731" data-palette-color="url(#9ed62deb-6959-43ab-935f-190463be2e80)"><path d="M15-17.25L10.25-17.25 22.25 0 27.5 0 15-17.25ZM8.25-35L4-35 4 0 8.25 0 8.25-35ZM6.35-35L6.35-31.25 13.5-31.25Q15.75-31.25 17.48-30.45 19.2-29.65 20.18-28.15 21.15-26.65 21.15-24.5L21.15-24.5Q21.15-22.35 20.18-20.85 19.2-19.35 17.48-18.55 15.75-17.75 13.5-17.75L13.5-17.75 6.35-17.75 6.35-14 13.5-14Q16.9-14 19.58-15.28 22.25-16.55 23.83-18.93 25.4-21.3 25.4-24.5L25.4-24.5Q25.4-27.75 23.83-30.1 22.25-32.45 19.58-33.73 16.9-35 13.5-35L13.5-35 6.35-35ZM29.75-11.5L29.75-11.5Q29.75-8.05 31.32-5.33 32.9-2.6 35.6-1.05 38.3 0.5 41.65 0.5L41.65 0.5Q45.05 0.5 47.72-1.05 50.4-2.6 51.97-5.33 53.55-8.05 53.55-11.5L53.55-11.5Q53.55-15 51.97-17.7 50.4-20.4 47.72-21.95 45.05-23.5 41.65-23.5L41.65-23.5Q38.3-23.5 35.6-21.95 32.9-20.4 31.32-17.7 29.75-15 29.75-11.5ZM33.8-11.5L33.8-11.5Q33.8-13.9 34.82-15.78 35.85-17.65 37.62-18.7 39.4-19.75 41.65-19.75L41.65-19.75Q43.9-19.75 45.67-18.7 47.45-17.65 48.47-15.78 49.5-13.9 49.5-11.5L49.5-11.5Q49.5-9.1 48.47-7.25 47.45-5.4 45.67-4.33 43.9-3.25 41.65-3.25L41.65-3.25Q39.4-3.25 37.62-4.33 35.85-5.4 34.82-7.25 33.8-9.1 33.8-11.5ZM63.05 0L63.05-39 59.05-39 59.05 0 63.05 0ZM73.8-14L73.8-14 73.8 0 77.8 0 77.8-14.5Q77.8-17.5 76.82-19.5 75.84-21.5 74.07-22.5 72.3-23.5 69.9-23.5L69.9-23.5Q67.5-23.5 65.67-22.25 63.84-21 62.8-18.88 61.75-16.75 61.75-14L61.75-14 63.05-14Q63.05-15.65 63.77-16.95 64.5-18.25 65.82-19 67.15-19.75 68.9-19.75L68.9-19.75Q71.34-19.75 72.57-18.3 73.8-16.85 73.8-14ZM87.09-7.1L87.09-7.1Q87.09-8.35 87.69-9.25 88.29-10.15 89.52-10.65 90.74-11.15 92.69-11.15L92.69-11.15Q94.79-11.15 96.64-10.63 98.49-10.1 100.24-8.9L100.24-8.9 100.24-11.25Q99.89-11.7 98.89-12.43 97.89-13.15 96.22-13.73 94.54-14.3 92.04-14.3L92.04-14.3Q87.79-14.3 85.42-12.28 83.04-10.25 83.04-6.9L83.04-6.9Q83.04-4.55 84.14-2.9 85.24-1.25 87.07-0.38 88.89 0.5 90.99 0.5L90.99 0.5Q92.89 0.5 94.82-0.2 96.74-0.9 98.07-2.35 99.39-3.8 99.39-6L99.39-6 98.59-9Q98.59-7.2 97.72-5.83 96.84-4.45 95.37-3.7 93.89-2.95 92.04-2.95L92.04-2.95Q90.59-2.95 89.47-3.43 88.34-3.9 87.72-4.85 87.09-5.8 87.09-7.1ZM84.54-20.65L86.49-17.7Q87.04-18.1 87.99-18.65 88.94-19.2 90.32-19.6 91.69-20 93.39-20L93.39-20Q94.44-20 95.39-19.8 96.34-19.6 97.07-19.15 97.79-18.7 98.19-17.93 98.59-17.15 98.59-15.95L98.59-15.95 98.59 0 102.59 0 102.59-16.5Q102.59-18.75 101.47-20.3 100.34-21.85 98.32-22.68 96.29-23.5 93.59-23.5L93.59-23.5Q90.39-23.5 88.12-22.55 85.84-21.6 84.54-20.65L84.54-20.65ZM124.09-14L124.09-14 124.09 0 128.09 0 128.09-14.5Q128.09-18.65 125.97-21.08 123.84-23.5 120.19-23.5L120.19-23.5Q117.94-23.5 116.22-22.5 114.49-21.5 113.34-19.4L113.34-19.4 113.34-23 109.34-23 109.34 0 113.34 0 113.34-14Q113.34-15.7 114.06-17 114.79-18.3 116.12-19.03 117.44-19.75 119.19-19.75L119.19-19.75Q121.59-19.75 122.84-18.3 124.09-16.85 124.09-14ZM147.34-35L147.34-31 156.34-31 156.34 0 160.59 0 160.59-31 169.59-31 169.59-35 147.34-35ZM173.83-32.5L173.83-32.5Q173.83-31.4 174.66-30.58 175.48-29.75 176.58-29.75L176.58-29.75Q177.73-29.75 178.53-30.58 179.33-31.4 179.33-32.5L179.33-32.5Q179.33-33.65 178.53-34.45 177.73-35.25 176.58-35.25L176.58-35.25Q175.48-35.25 174.66-34.45 173.83-33.65 173.83-32.5ZM178.58-23L174.58-23 174.58 0 178.58 0 178.58-23ZM218.33 0L218.33-14.5Q218.33-17.35 217.46-19.38 216.58-21.4 214.93-22.45 213.28-23.5 210.93-23.5L210.93-23.5Q208.63-23.5 206.83-22.43 205.03-21.35 203.83-19.2L203.83-19.2Q203.03-21.25 201.31-22.38 199.58-23.5 197.18-23.5L197.18-23.5Q195.03-23.5 193.46-22.55 191.88-21.6 190.83-19.65L190.83-19.65 190.83-23 186.83-23 186.83 0 190.83 0 190.83-14Q190.83-15.8 191.48-17.1 192.13-18.4 193.33-19.07 194.53-19.75 196.18-19.75L196.18-19.75Q198.43-19.75 199.51-18.35 200.58-16.95 200.58-14L200.58-14 200.58 0 204.58 0 204.58-14Q204.58-15.8 205.23-17.1 205.88-18.4 207.08-19.07 208.28-19.75 209.93-19.75L209.93-19.75Q212.18-19.75 213.26-18.35 214.33-16.95 214.33-14L214.33-14 214.33 0 218.33 0ZM234.73 0.5L234.73 0.5Q238.43 0.5 241.15-0.98 243.88-2.45 245.68-5.35L245.68-5.35 242.43-7.4Q241.18-5.3 239.38-4.28 237.58-3.25 235.23-3.25L235.23-3.25Q232.88-3.25 231.23-4.25 229.58-5.25 228.73-7.15 227.88-9.05 227.88-11.75L227.88-11.75Q227.93-14.4 228.8-16.23 229.68-18.05 231.3-19.03 232.93-20 235.23-20L235.23-20Q237.18-20 238.63-19.15 240.08-18.3 240.9-16.8 241.73-15.3 241.73-13.25L241.73-13.25Q241.73-12.9 241.58-12.38 241.43-11.85 241.28-11.6L241.28-11.6 242.88-13.9 226.38-13.9 226.38-10.5 246.03-10.5Q246.03-10.6 246.05-10.98 246.08-11.35 246.08-11.7L246.08-11.7Q246.08-15.35 244.78-18 243.48-20.65 241.05-22.08 238.63-23.5 235.23-23.5L235.23-23.5Q231.83-23.5 229.25-22 226.68-20.5 225.25-17.8 223.83-15.1 223.83-11.5L223.83-11.5Q223.83-7.95 225.2-5.25 226.58-2.55 229.05-1.03 231.53 0.5 234.73 0.5ZM269.17-4L269.17 0 286.82 0 286.82-4 269.17-4ZM269.17-35L269.17-31 286.82-31 286.82-35 269.17-35ZM269.17-21L269.17-17 285.82-17 285.82-21 269.17-21ZM271.07-35L266.82-35 266.82 0 271.07 0 271.07-35ZM298.07 0L298.07-23 294.07-23 294.07 0 298.07 0ZM305.02-18.6L305.02-18.6 307.22-21.9Q306.32-22.85 305.25-23.18 304.17-23.5 302.92-23.5L302.92-23.5Q301.32-23.5 299.77-22.25 298.22-21 297.25-18.88 296.27-16.75 296.27-14L296.27-14 298.07-14Q298.07-15.65 298.4-16.95 298.72-18.25 299.57-19 300.42-19.75 301.92-19.75L301.92-19.75Q302.92-19.75 303.57-19.48 304.22-19.2 305.02-18.6ZM315.22 0L315.22-23 311.22-23 311.22 0 315.22 0ZM322.17-18.6L322.17-18.6 324.37-21.9Q323.47-22.85 322.39-23.18 321.32-23.5 320.07-23.5L320.07-23.5Q318.47-23.5 316.92-22.25 315.37-21 314.39-18.88 313.42-16.75 313.42-14L313.42-14 315.22-14Q315.22-15.65 315.54-16.95 315.87-18.25 316.72-19 317.57-19.75 319.07-19.75L319.07-19.75Q320.07-19.75 320.72-19.48 321.37-19.2 322.17-18.6ZM325.62-11.5L325.62-11.5Q325.62-8.05 327.19-5.33 328.76-2.6 331.47-1.05 334.17 0.5 337.51 0.5L337.51 0.5Q340.92 0.5 343.59-1.05 346.26-2.6 347.84-5.33 349.42-8.05 349.42-11.5L349.42-11.5Q349.42-15 347.84-17.7 346.26-20.4 343.59-21.95 340.92-23.5 337.51-23.5L337.51-23.5Q334.17-23.5 331.47-21.95 328.76-20.4 327.19-17.7 325.62-15 325.62-11.5ZM329.67-11.5L329.67-11.5Q329.67-13.9 330.69-15.78 331.72-17.65 333.49-18.7 335.26-19.75 337.51-19.75L337.51-19.75Q339.76-19.75 341.54-18.7 343.31-17.65 344.34-15.78 345.37-13.9 345.37-11.5L345.37-11.5Q345.37-9.1 344.34-7.25 343.31-5.4 341.54-4.33 339.76-3.25 337.51-3.25L337.51-3.25Q335.26-3.25 333.49-4.33 331.72-5.4 330.69-7.25 329.67-9.1 329.67-11.5ZM358.91 0L358.91-23 354.91-23 354.91 0 358.91 0ZM365.86-18.6L365.86-18.6 368.06-21.9Q367.16-22.85 366.09-23.18 365.01-23.5 363.76-23.5L363.76-23.5Q362.16-23.5 360.61-22.25 359.06-21 358.09-18.88 357.11-16.75 357.11-14L357.11-14 358.91-14Q358.91-15.65 359.24-16.95 359.56-18.25 360.41-19 361.26-19.75 362.76-19.75L362.76-19.75Q363.76-19.75 364.41-19.48 365.06-19.2 365.86-18.6Z" opacity="1" transform="matrix(1,0,0,1,0,0)" fill="black" class="slogan-text-1" id="SvgjsPath1049"></path></svg></g></svg></g></svg></g></svg></g></svg></g><defs><mask></mask></defs></svg><rect width="140.16779205435736" height="247.2" fill="black" stroke="none" visibility="hidden"></rect></g></mask><linearGradient x1="0" x2="1" y1="0.578" y2="0.595" id="dd7e835a-219f-416f-8362-d7ab52a3b82e"><stop stop-color="#6ee2f5" offset="0"></stop><stop stop-color="#6454f0" offset="1"></stop></linearGradient><rect width="140.16779205435736" height="247.2" fill="url(#dd7e835a-219f-416f-8362-d7ab52a3b82e)" mask="url(#00c74dd6-10de-4220-847b-0760194cedd3)" data-fill-palette-color="primary"></rect><mask id="b0253d7d-1783-4e59-8094-61b4dec26cd0"><g id="SvgjsG1062"><svg viewBox="0 0 140.16779205435736 247.2" height="247.2" width="140.16779205435736"><g><svg viewBox="0 0 178.6388610514286 315.04759977090873" height="247.2" width="140.16779205435736"><g><svg viewBox="0 0 178.6388610514286 315.04759977090873" height="315.04759977090873" width="178.6388610514286"><g id="SvgjsG1061"><svg viewBox="0 0 178.6388610514286 315.04759977090873" height="315.04759977090873" width="178.6388610514286" id="SvgjsSvg1060"><g><svg viewBox="0 0 178.6388610514286 245.672304" height="245.672304" width="178.6388610514286"><g transform="matrix(1,0,0,1,0,0)"><svg width="178.6388610514286" viewBox="4.75 -35 25.45 35" height="245.672304" data-palette-color="url(#dd7e835a-219f-416f-8362-d7ab52a3b82e)"></svg></g></svg></g><g transform="matrix(1,0,0,1,0,303.669638839104)"><svg viewBox="0 0 104.87887532329374 11.377960931804731" height="11.377960931804731" width="104.87887532329374"><g transform="matrix(1,0,0,1,0,0)"><svg width="104.87887532329374" viewBox="4 -39 364.06 39.5" height="11.377960931804731" data-palette-color="url(#9ed62deb-6959-43ab-935f-190463be2e80)"><path d="M15-17.25L10.25-17.25 22.25 0 27.5 0 15-17.25ZM8.25-35L4-35 4 0 8.25 0 8.25-35ZM6.35-35L6.35-31.25 13.5-31.25Q15.75-31.25 17.48-30.45 19.2-29.65 20.18-28.15 21.15-26.65 21.15-24.5L21.15-24.5Q21.15-22.35 20.18-20.85 19.2-19.35 17.48-18.55 15.75-17.75 13.5-17.75L13.5-17.75 6.35-17.75 6.35-14 13.5-14Q16.9-14 19.58-15.28 22.25-16.55 23.83-18.93 25.4-21.3 25.4-24.5L25.4-24.5Q25.4-27.75 23.83-30.1 22.25-32.45 19.58-33.73 16.9-35 13.5-35L13.5-35 6.35-35ZM29.75-11.5L29.75-11.5Q29.75-8.05 31.32-5.33 32.9-2.6 35.6-1.05 38.3 0.5 41.65 0.5L41.65 0.5Q45.05 0.5 47.72-1.05 50.4-2.6 51.97-5.33 53.55-8.05 53.55-11.5L53.55-11.5Q53.55-15 51.97-17.7 50.4-20.4 47.72-21.95 45.05-23.5 41.65-23.5L41.65-23.5Q38.3-23.5 35.6-21.95 32.9-20.4 31.32-17.7 29.75-15 29.75-11.5ZM33.8-11.5L33.8-11.5Q33.8-13.9 34.82-15.78 35.85-17.65 37.62-18.7 39.4-19.75 41.65-19.75L41.65-19.75Q43.9-19.75 45.67-18.7 47.45-17.65 48.47-15.78 49.5-13.9 49.5-11.5L49.5-11.5Q49.5-9.1 48.47-7.25 47.45-5.4 45.67-4.33 43.9-3.25 41.65-3.25L41.65-3.25Q39.4-3.25 37.62-4.33 35.85-5.4 34.82-7.25 33.8-9.1 33.8-11.5ZM63.05 0L63.05-39 59.05-39 59.05 0 63.05 0ZM73.8-14L73.8-14 73.8 0 77.8 0 77.8-14.5Q77.8-17.5 76.82-19.5 75.84-21.5 74.07-22.5 72.3-23.5 69.9-23.5L69.9-23.5Q67.5-23.5 65.67-22.25 63.84-21 62.8-18.88 61.75-16.75 61.75-14L61.75-14 63.05-14Q63.05-15.65 63.77-16.95 64.5-18.25 65.82-19 67.15-19.75 68.9-19.75L68.9-19.75Q71.34-19.75 72.57-18.3 73.8-16.85 73.8-14ZM87.09-7.1L87.09-7.1Q87.09-8.35 87.69-9.25 88.29-10.15 89.52-10.65 90.74-11.15 92.69-11.15L92.69-11.15Q94.79-11.15 96.64-10.63 98.49-10.1 100.24-8.9L100.24-8.9 100.24-11.25Q99.89-11.7 98.89-12.43 97.89-13.15 96.22-13.73 94.54-14.3 92.04-14.3L92.04-14.3Q87.79-14.3 85.42-12.28 83.04-10.25 83.04-6.9L83.04-6.9Q83.04-4.55 84.14-2.9 85.24-1.25 87.07-0.38 88.89 0.5 90.99 0.5L90.99 0.5Q92.89 0.5 94.82-0.2 96.74-0.9 98.07-2.35 99.39-3.8 99.39-6L99.39-6 98.59-9Q98.59-7.2 97.72-5.83 96.84-4.45 95.37-3.7 93.89-2.95 92.04-2.95L92.04-2.95Q90.59-2.95 89.47-3.43 88.34-3.9 87.72-4.85 87.09-5.8 87.09-7.1ZM84.54-20.65L86.49-17.7Q87.04-18.1 87.99-18.65 88.94-19.2 90.32-19.6 91.69-20 93.39-20L93.39-20Q94.44-20 95.39-19.8 96.34-19.6 97.07-19.15 97.79-18.7 98.19-17.93 98.59-17.15 98.59-15.95L98.59-15.95 98.59 0 102.59 0 102.59-16.5Q102.59-18.75 101.47-20.3 100.34-21.85 98.32-22.68 96.29-23.5 93.59-23.5L93.59-23.5Q90.39-23.5 88.12-22.55 85.84-21.6 84.54-20.65L84.54-20.65ZM124.09-14L124.09-14 124.09 0 128.09 0 128.09-14.5Q128.09-18.65 125.97-21.08 123.84-23.5 120.19-23.5L120.19-23.5Q117.94-23.5 116.22-22.5 114.49-21.5 113.34-19.4L113.34-19.4 113.34-23 109.34-23 109.34 0 113.34 0 113.34-14Q113.34-15.7 114.06-17 114.79-18.3 116.12-19.03 117.44-19.75 119.19-19.75L119.19-19.75Q121.59-19.75 122.84-18.3 124.09-16.85 124.09-14ZM147.34-35L147.34-31 156.34-31 156.34 0 160.59 0 160.59-31 169.59-31 169.59-35 147.34-35ZM173.83-32.5L173.83-32.5Q173.83-31.4 174.66-30.58 175.48-29.75 176.58-29.75L176.58-29.75Q177.73-29.75 178.53-30.58 179.33-31.4 179.33-32.5L179.33-32.5Q179.33-33.65 178.53-34.45 177.73-35.25 176.58-35.25L176.58-35.25Q175.48-35.25 174.66-34.45 173.83-33.65 173.83-32.5ZM178.58-23L174.58-23 174.58 0 178.58 0 178.58-23ZM218.33 0L218.33-14.5Q218.33-17.35 217.46-19.38 216.58-21.4 214.93-22.45 213.28-23.5 210.93-23.5L210.93-23.5Q208.63-23.5 206.83-22.43 205.03-21.35 203.83-19.2L203.83-19.2Q203.03-21.25 201.31-22.38 199.58-23.5 197.18-23.5L197.18-23.5Q195.03-23.5 193.46-22.55 191.88-21.6 190.83-19.65L190.83-19.65 190.83-23 186.83-23 186.83 0 190.83 0 190.83-14Q190.83-15.8 191.48-17.1 192.13-18.4 193.33-19.07 194.53-19.75 196.18-19.75L196.18-19.75Q198.43-19.75 199.51-18.35 200.58-16.95 200.58-14L200.58-14 200.58 0 204.58 0 204.58-14Q204.58-15.8 205.23-17.1 205.88-18.4 207.08-19.07 208.28-19.75 209.93-19.75L209.93-19.75Q212.18-19.75 213.26-18.35 214.33-16.95 214.33-14L214.33-14 214.33 0 218.33 0ZM234.73 0.5L234.73 0.5Q238.43 0.5 241.15-0.98 243.88-2.45 245.68-5.35L245.68-5.35 242.43-7.4Q241.18-5.3 239.38-4.28 237.58-3.25 235.23-3.25L235.23-3.25Q232.88-3.25 231.23-4.25 229.58-5.25 228.73-7.15 227.88-9.05 227.88-11.75L227.88-11.75Q227.93-14.4 228.8-16.23 229.68-18.05 231.3-19.03 232.93-20 235.23-20L235.23-20Q237.18-20 238.63-19.15 240.08-18.3 240.9-16.8 241.73-15.3 241.73-13.25L241.73-13.25Q241.73-12.9 241.58-12.38 241.43-11.85 241.28-11.6L241.28-11.6 242.88-13.9 226.38-13.9 226.38-10.5 246.03-10.5Q246.03-10.6 246.05-10.98 246.08-11.35 246.08-11.7L246.08-11.7Q246.08-15.35 244.78-18 243.48-20.65 241.05-22.08 238.63-23.5 235.23-23.5L235.23-23.5Q231.83-23.5 229.25-22 226.68-20.5 225.25-17.8 223.83-15.1 223.83-11.5L223.83-11.5Q223.83-7.95 225.2-5.25 226.58-2.55 229.05-1.03 231.53 0.5 234.73 0.5ZM269.17-4L269.17 0 286.82 0 286.82-4 269.17-4ZM269.17-35L269.17-31 286.82-31 286.82-35 269.17-35ZM269.17-21L269.17-17 285.82-17 285.82-21 269.17-21ZM271.07-35L266.82-35 266.82 0 271.07 0 271.07-35ZM298.07 0L298.07-23 294.07-23 294.07 0 298.07 0ZM305.02-18.6L305.02-18.6 307.22-21.9Q306.32-22.85 305.25-23.18 304.17-23.5 302.92-23.5L302.92-23.5Q301.32-23.5 299.77-22.25 298.22-21 297.25-18.88 296.27-16.75 296.27-14L296.27-14 298.07-14Q298.07-15.65 298.4-16.95 298.72-18.25 299.57-19 300.42-19.75 301.92-19.75L301.92-19.75Q302.92-19.75 303.57-19.48 304.22-19.2 305.02-18.6ZM315.22 0L315.22-23 311.22-23 311.22 0 315.22 0ZM322.17-18.6L322.17-18.6 324.37-21.9Q323.47-22.85 322.39-23.18 321.32-23.5 320.07-23.5L320.07-23.5Q318.47-23.5 316.92-22.25 315.37-21 314.39-18.88 313.42-16.75 313.42-14L313.42-14 315.22-14Q315.22-15.65 315.54-16.95 315.87-18.25 316.72-19 317.57-19.75 319.07-19.75L319.07-19.75Q320.07-19.75 320.72-19.48 321.37-19.2 322.17-18.6ZM325.62-11.5L325.62-11.5Q325.62-8.05 327.19-5.33 328.76-2.6 331.47-1.05 334.17 0.5 337.51 0.5L337.51 0.5Q340.92 0.5 343.59-1.05 346.26-2.6 347.84-5.33 349.42-8.05 349.42-11.5L349.42-11.5Q349.42-15 347.84-17.7 346.26-20.4 343.59-21.95 340.92-23.5 337.51-23.5L337.51-23.5Q334.17-23.5 331.47-21.95 328.76-20.4 327.19-17.7 325.62-15 325.62-11.5ZM329.67-11.5L329.67-11.5Q329.67-13.9 330.69-15.78 331.72-17.65 333.49-18.7 335.26-19.75 337.51-19.75L337.51-19.75Q339.76-19.75 341.54-18.7 343.31-17.65 344.34-15.78 345.37-13.9 345.37-11.5L345.37-11.5Q345.37-9.1 344.34-7.25 343.31-5.4 341.54-4.33 339.76-3.25 337.51-3.25L337.51-3.25Q335.26-3.25 333.49-4.33 331.72-5.4 330.69-7.25 329.67-9.1 329.67-11.5ZM358.91 0L358.91-23 354.91-23 354.91 0 358.91 0ZM365.86-18.6L365.86-18.6 368.06-21.9Q367.16-22.85 366.09-23.18 365.01-23.5 363.76-23.5L363.76-23.5Q362.16-23.5 360.61-22.25 359.06-21 358.09-18.88 357.11-16.75 357.11-14L357.11-14 358.91-14Q358.91-15.65 359.24-16.95 359.56-18.25 360.41-19 361.26-19.75 362.76-19.75L362.76-19.75Q363.76-19.75 364.41-19.48 365.06-19.2 365.86-18.6Z" opacity="1" transform="matrix(1,0,0,1,0,0)" fill="white" class="slogan-text-1" id="SvgjsPath1059"></path></svg></g></svg></g></svg></g></svg></g></svg></g><defs><mask></mask></defs><mask><g id="SvgjsG1058"><svg viewBox="0 0 140.16779205435736 247.2" height="247.2" width="140.16779205435736"><g><svg viewBox="0 0 178.6388610514286 315.04759977090873" height="247.2" width="140.16779205435736"><g><svg viewBox="0 0 178.6388610514286 315.04759977090873" height="315.04759977090873" width="178.6388610514286"><g id="SvgjsG1057"><svg viewBox="0 0 178.6388610514286 315.04759977090873" height="315.04759977090873" width="178.6388610514286" id="SvgjsSvg1056"><g><svg viewBox="0 0 178.6388610514286 245.672304" height="245.672304" width="178.6388610514286"><g transform="matrix(1,0,0,1,0,0)"><svg width="178.6388610514286" viewBox="4.75 -35 25.45 35" height="245.672304" data-palette-color="url(#dd7e835a-219f-416f-8362-d7ab52a3b82e)"><path d="M9.25 0L4.75 0 4.75-35 17.4-35Q20.55-35 22.63-34.08 24.7-33.15 25.95-31.65 27.2-30.15 27.73-28.38 28.25-26.6 28.25-24.9L28.25-24.9Q28.25-22 26.55-19.3 24.85-16.6 21.3-15.3L21.3-15.3 30.2 0 25 0 16.8-14.6 9.25-14.6 9.25 0ZM9.15-31L9.15-18.6 17.4-18.6Q20.15-18.6 21.95-20.43 23.75-22.25 23.75-24.9L23.75-24.9Q23.75-26.5 22.95-27.88 22.15-29.25 20.73-30.13 19.3-31 17.45-31L17.45-31 9.15-31Z" opacity="1" transform="matrix(1,0,0,1,0,0)" fill="black" class="wordmark-text-0" id="SvgjsPath1055"></path></svg></g></svg></g><g transform="matrix(1,0,0,1,0,303.669638839104)"><svg viewBox="0 0 104.87887532329374 11.377960931804731" height="11.377960931804731" width="104.87887532329374"><g transform="matrix(1,0,0,1,0,0)"><svg width="104.87887532329374" viewBox="4 -39 364.06 39.5" height="11.377960931804731" data-palette-color="url(#9ed62deb-6959-43ab-935f-190463be2e80)"><path d="M15-17.25L10.25-17.25 22.25 0 27.5 0 15-17.25ZM8.25-35L4-35 4 0 8.25 0 8.25-35ZM6.35-35L6.35-31.25 13.5-31.25Q15.75-31.25 17.48-30.45 19.2-29.65 20.18-28.15 21.15-26.65 21.15-24.5L21.15-24.5Q21.15-22.35 20.18-20.85 19.2-19.35 17.48-18.55 15.75-17.75 13.5-17.75L13.5-17.75 6.35-17.75 6.35-14 13.5-14Q16.9-14 19.58-15.28 22.25-16.55 23.83-18.93 25.4-21.3 25.4-24.5L25.4-24.5Q25.4-27.75 23.83-30.1 22.25-32.45 19.58-33.73 16.9-35 13.5-35L13.5-35 6.35-35ZM29.75-11.5L29.75-11.5Q29.75-8.05 31.32-5.33 32.9-2.6 35.6-1.05 38.3 0.5 41.65 0.5L41.65 0.5Q45.05 0.5 47.72-1.05 50.4-2.6 51.97-5.33 53.55-8.05 53.55-11.5L53.55-11.5Q53.55-15 51.97-17.7 50.4-20.4 47.72-21.95 45.05-23.5 41.65-23.5L41.65-23.5Q38.3-23.5 35.6-21.95 32.9-20.4 31.32-17.7 29.75-15 29.75-11.5ZM33.8-11.5L33.8-11.5Q33.8-13.9 34.82-15.78 35.85-17.65 37.62-18.7 39.4-19.75 41.65-19.75L41.65-19.75Q43.9-19.75 45.67-18.7 47.45-17.65 48.47-15.78 49.5-13.9 49.5-11.5L49.5-11.5Q49.5-9.1 48.47-7.25 47.45-5.4 45.67-4.33 43.9-3.25 41.65-3.25L41.65-3.25Q39.4-3.25 37.62-4.33 35.85-5.4 34.82-7.25 33.8-9.1 33.8-11.5ZM63.05 0L63.05-39 59.05-39 59.05 0 63.05 0ZM73.8-14L73.8-14 73.8 0 77.8 0 77.8-14.5Q77.8-17.5 76.82-19.5 75.84-21.5 74.07-22.5 72.3-23.5 69.9-23.5L69.9-23.5Q67.5-23.5 65.67-22.25 63.84-21 62.8-18.88 61.75-16.75 61.75-14L61.75-14 63.05-14Q63.05-15.65 63.77-16.95 64.5-18.25 65.82-19 67.15-19.75 68.9-19.75L68.9-19.75Q71.34-19.75 72.57-18.3 73.8-16.85 73.8-14ZM87.09-7.1L87.09-7.1Q87.09-8.35 87.69-9.25 88.29-10.15 89.52-10.65 90.74-11.15 92.69-11.15L92.69-11.15Q94.79-11.15 96.64-10.63 98.49-10.1 100.24-8.9L100.24-8.9 100.24-11.25Q99.89-11.7 98.89-12.43 97.89-13.15 96.22-13.73 94.54-14.3 92.04-14.3L92.04-14.3Q87.79-14.3 85.42-12.28 83.04-10.25 83.04-6.9L83.04-6.9Q83.04-4.55 84.14-2.9 85.24-1.25 87.07-0.38 88.89 0.5 90.99 0.5L90.99 0.5Q92.89 0.5 94.82-0.2 96.74-0.9 98.07-2.35 99.39-3.8 99.39-6L99.39-6 98.59-9Q98.59-7.2 97.72-5.83 96.84-4.45 95.37-3.7 93.89-2.95 92.04-2.95L92.04-2.95Q90.59-2.95 89.47-3.43 88.34-3.9 87.72-4.85 87.09-5.8 87.09-7.1ZM84.54-20.65L86.49-17.7Q87.04-18.1 87.99-18.65 88.94-19.2 90.32-19.6 91.69-20 93.39-20L93.39-20Q94.44-20 95.39-19.8 96.34-19.6 97.07-19.15 97.79-18.7 98.19-17.93 98.59-17.15 98.59-15.95L98.59-15.95 98.59 0 102.59 0 102.59-16.5Q102.59-18.75 101.47-20.3 100.34-21.85 98.32-22.68 96.29-23.5 93.59-23.5L93.59-23.5Q90.39-23.5 88.12-22.55 85.84-21.6 84.54-20.65L84.54-20.65ZM124.09-14L124.09-14 124.09 0 128.09 0 128.09-14.5Q128.09-18.65 125.97-21.08 123.84-23.5 120.19-23.5L120.19-23.5Q117.94-23.5 116.22-22.5 114.49-21.5 113.34-19.4L113.34-19.4 113.34-23 109.34-23 109.34 0 113.34 0 113.34-14Q113.34-15.7 114.06-17 114.79-18.3 116.12-19.03 117.44-19.75 119.19-19.75L119.19-19.75Q121.59-19.75 122.84-18.3 124.09-16.85 124.09-14ZM147.34-35L147.34-31 156.34-31 156.34 0 160.59 0 160.59-31 169.59-31 169.59-35 147.34-35ZM173.83-32.5L173.83-32.5Q173.83-31.4 174.66-30.58 175.48-29.75 176.58-29.75L176.58-29.75Q177.73-29.75 178.53-30.58 179.33-31.4 179.33-32.5L179.33-32.5Q179.33-33.65 178.53-34.45 177.73-35.25 176.58-35.25L176.58-35.25Q175.48-35.25 174.66-34.45 173.83-33.65 173.83-32.5ZM178.58-23L174.58-23 174.58 0 178.58 0 178.58-23ZM218.33 0L218.33-14.5Q218.33-17.35 217.46-19.38 216.58-21.4 214.93-22.45 213.28-23.5 210.93-23.5L210.93-23.5Q208.63-23.5 206.83-22.43 205.03-21.35 203.83-19.2L203.83-19.2Q203.03-21.25 201.31-22.38 199.58-23.5 197.18-23.5L197.18-23.5Q195.03-23.5 193.46-22.55 191.88-21.6 190.83-19.65L190.83-19.65 190.83-23 186.83-23 186.83 0 190.83 0 190.83-14Q190.83-15.8 191.48-17.1 192.13-18.4 193.33-19.07 194.53-19.75 196.18-19.75L196.18-19.75Q198.43-19.75 199.51-18.35 200.58-16.95 200.58-14L200.58-14 200.58 0 204.58 0 204.58-14Q204.58-15.8 205.23-17.1 205.88-18.4 207.08-19.07 208.28-19.75 209.93-19.75L209.93-19.75Q212.18-19.75 213.26-18.35 214.33-16.95 214.33-14L214.33-14 214.33 0 218.33 0ZM234.73 0.5L234.73 0.5Q238.43 0.5 241.15-0.98 243.88-2.45 245.68-5.35L245.68-5.35 242.43-7.4Q241.18-5.3 239.38-4.28 237.58-3.25 235.23-3.25L235.23-3.25Q232.88-3.25 231.23-4.25 229.58-5.25 228.73-7.15 227.88-9.05 227.88-11.75L227.88-11.75Q227.93-14.4 228.8-16.23 229.68-18.05 231.3-19.03 232.93-20 235.23-20L235.23-20Q237.18-20 238.63-19.15 240.08-18.3 240.9-16.8 241.73-15.3 241.73-13.25L241.73-13.25Q241.73-12.9 241.58-12.38 241.43-11.85 241.28-11.6L241.28-11.6 242.88-13.9 226.38-13.9 226.38-10.5 246.03-10.5Q246.03-10.6 246.05-10.98 246.08-11.35 246.08-11.7L246.08-11.7Q246.08-15.35 244.78-18 243.48-20.65 241.05-22.08 238.63-23.5 235.23-23.5L235.23-23.5Q231.83-23.5 229.25-22 226.68-20.5 225.25-17.8 223.83-15.1 223.83-11.5L223.83-11.5Q223.83-7.95 225.2-5.25 226.58-2.55 229.05-1.03 231.53 0.5 234.73 0.5ZM269.17-4L269.17 0 286.82 0 286.82-4 269.17-4ZM269.17-35L269.17-31 286.82-31 286.82-35 269.17-35ZM269.17-21L269.17-17 285.82-17 285.82-21 269.17-21ZM271.07-35L266.82-35 266.82 0 271.07 0 271.07-35ZM298.07 0L298.07-23 294.07-23 294.07 0 298.07 0ZM305.02-18.6L305.02-18.6 307.22-21.9Q306.32-22.85 305.25-23.18 304.17-23.5 302.92-23.5L302.92-23.5Q301.32-23.5 299.77-22.25 298.22-21 297.25-18.88 296.27-16.75 296.27-14L296.27-14 298.07-14Q298.07-15.65 298.4-16.95 298.72-18.25 299.57-19 300.42-19.75 301.92-19.75L301.92-19.75Q302.92-19.75 303.57-19.48 304.22-19.2 305.02-18.6ZM315.22 0L315.22-23 311.22-23 311.22 0 315.22 0ZM322.17-18.6L322.17-18.6 324.37-21.9Q323.47-22.85 322.39-23.18 321.32-23.5 320.07-23.5L320.07-23.5Q318.47-23.5 316.92-22.25 315.37-21 314.39-18.88 313.42-16.75 313.42-14L313.42-14 315.22-14Q315.22-15.65 315.54-16.95 315.87-18.25 316.72-19 317.57-19.75 319.07-19.75L319.07-19.75Q320.07-19.75 320.72-19.48 321.37-19.2 322.17-18.6ZM325.62-11.5L325.62-11.5Q325.62-8.05 327.19-5.33 328.76-2.6 331.47-1.05 334.17 0.5 337.51 0.5L337.51 0.5Q340.92 0.5 343.59-1.05 346.26-2.6 347.84-5.33 349.42-8.05 349.42-11.5L349.42-11.5Q349.42-15 347.84-17.7 346.26-20.4 343.59-21.95 340.92-23.5 337.51-23.5L337.51-23.5Q334.17-23.5 331.47-21.95 328.76-20.4 327.19-17.7 325.62-15 325.62-11.5ZM329.67-11.5L329.67-11.5Q329.67-13.9 330.69-15.78 331.72-17.65 333.49-18.7 335.26-19.75 337.51-19.75L337.51-19.75Q339.76-19.75 341.54-18.7 343.31-17.65 344.34-15.78 345.37-13.9 345.37-11.5L345.37-11.5Q345.37-9.1 344.34-7.25 343.31-5.4 341.54-4.33 339.76-3.25 337.51-3.25L337.51-3.25Q335.26-3.25 333.49-4.33 331.72-5.4 330.69-7.25 329.67-9.1 329.67-11.5ZM358.91 0L358.91-23 354.91-23 354.91 0 358.91 0ZM365.86-18.6L365.86-18.6 368.06-21.9Q367.16-22.85 366.09-23.18 365.01-23.5 363.76-23.5L363.76-23.5Q362.16-23.5 360.61-22.25 359.06-21 358.09-18.88 357.11-16.75 357.11-14L357.11-14 358.91-14Q358.91-15.65 359.24-16.95 359.56-18.25 360.41-19 361.26-19.75 362.76-19.75L362.76-19.75Q363.76-19.75 364.41-19.48 365.06-19.2 365.86-18.6Z" opacity="1" transform="matrix(1,0,0,1,0,0)" fill="black" class="slogan-text-1" id="SvgjsPath1054"></path></svg></g></svg></g></svg></g></svg></g></svg></g><defs><mask></mask></defs></svg><rect width="140.16779205435736" height="247.2" fill="black" stroke="none" visibility="hidden"></rect></g></mask></svg><rect width="140.16779205435736" height="247.2" fill="black" stroke="none" visibility="hidden"></rect></g></mask><linearGradient x1="0" x2="1" y1="0.578" y2="0.595" id="9ed62deb-6959-43ab-935f-190463be2e80"><stop stop-color="#6ee2f5" offset="0"></stop><stop stop-color="#6454f0" offset="1"></stop></linearGradient><rect width="140.16779205435736" height="247.2" fill="url(#9ed62deb-6959-43ab-935f-190463be2e80)" mask="url(#b0253d7d-1783-4e59-8094-61b4dec26cd0)" data-fill-palette-color="secondary"></rect></svg><rect width="140.16779205435736" height="247.2" fill="none" stroke="none" visibility="hidden"></rect></g></svg></g></svg>