<svg xmlns="http://www.w3.org/2000/svg" version="1.1" xmlns:xlink="http://www.w3.org/1999/xlink" xmlns:svgjs="http://svgjs.dev/svgjs" width="1500" height="1550" viewBox="0 0 1500 1550"><g transform="matrix(1,0,0,1,0.25614263528018455,0.6275303643724328)"><svg viewBox="0 0 239 247" data-background-color="#000000" preserveAspectRatio="xMidYMid meet" height="1550" width="1500" xmlns="http://www.w3.org/2000/svg" xmlns:xlink="http://www.w3.org/1999/xlink"><g id="tight-bounds" transform="matrix(1,0,0,1,-0.0408120598879691,-0.09999999999999432)"><svg viewBox="0 0 239.08148594093075 247.2" height="247.2" width="239.08148594093075"><rect width="239.081624119776" height="247.2" fill="url(#d48c0d43-6f7f-4e72-a9fa-c895f7f4cf90)" mask="url(#00cf6814-d3d4-4da8-bab8-393f19114a28)" data-fill-palette-color="tertiary"></rect><g><svg viewBox="0 0 294.76670164176625 304.77612416984687" height="247.2" width="239.08148594093075"><g><svg viewBox="0 0 294.76670164176625 304.77612416984687" height="304.77612416984687" width="294.76670164176625"><g id="textblocktransform"><svg viewBox="0 0 294.76670164176625 304.77612416984687" height="304.77612416984687" width="294.76670164176625" id="textblock"><g><svg viewBox="0 0 294.76670164176625 245.672304" height="245.672304" width="294.76670164176625"><path d="M294.077 52.692C292.691 27.191 288.741 20.102 288.741 20.102 276.616-6.164 261.483-0.502 247.889 3.272 223.888 3.425 199.983 9.035 176.037 12.044 125.776 12.503 75.085 4.955 25.073 23.57 20.375 29.282-4.874 24.692 0.836 55.956 2.332 68.961 7.792 83.395 7.626 95.329 8.374 97.42 9.413 92.626 9.857 95.635 11.409 103.744 13.945 99.919 16.024 104.713 13.127 117.515 15.206 128.174 17.188 139.343 13.695 142.25 9.219 140.873 7.21 150.513 7.002 157.5 5.88 156.174 4.646 155.868 3.746 155.664 1.93 156.429 2.235 158.622 3.275 166.119-1.188 170.454 1.612 177.798-0.315 185.755 2.942 192.64 2.499 201.259 2.443 202.993 2.748 204.472 3.233 204.88 5.381 207.073 2.249 211.357 2.582 215.998 24.615 247.721 48.52 225.791 71.094 240.377 76.955 230.177 72.549 243.998 74.891 241.856 76.72 239.357 78.05 249.71 80.115 243.845 80.434 242.162 79.949 238.184 81.085 238.949 81.681 239.357 82.208 239.255 82.291 236.909 82.415 233.39 81.321 235.583 81.03 233.747 84.175 224.465 83.399 246.548 86.351 245.63 86.212 242.927 85.353 239.051 87.113 239.561 88.859 235.685 88.915 232.472 90.467 241.193 90.522 243.08 90.799 244.406 91.243 245.324 96.093 235.838 100.915 248.69 106.001 244.406 109.119 239.714 112.112 246.956 115.272 245.171 116.38 243.743 117.503 241.193 118.57 245.477 131.638 246.395 145.565 242.57 157.953 245.63 191.059 239.918 226.438 247.976 261.345 240.428 269.576 237.521 278.126 233.39 286.15 230.075 286.15 230.075 292.649 220.997 292.649 180.196S294.035 144.495 294.243 112.007C294.451 79.519 295.421 78.193 294.035 52.692Z" opacity="1" fill="url(#d48c0d43-6f7f-4e72-a9fa-c895f7f4cf90)" data-fill-palette-color="tertiary"></path><g transform="matrix(1,0,0,1,55.76832,26.068561146666667)"><svg width="183.23006164176624" viewBox="1.2 -38.5 36.449999999999996 38.5" height="193.53518170666666" data-palette-color="#000000"><path d="M16.95-10.3L16.95 0 1.2 0 1.2-38.5 24.1-38.5Q27.3-38.5 29.98-37.35 32.65-36.2 34.25-33.65 35.85-31.1 35.85-26.85L35.85-26.85Q35.85-25.65 35.68-24.25 35.5-22.85 34.9-21.48 34.3-20.1 33.08-19.03 31.85-17.95 29.75-17.35L29.75-17.35 37.65 0 20.1 0 17.4-10.3 16.95-10.3ZM20.4-26.2L20.4-26.2 15.6-26.2 15.6-23.5 20.55-23.5Q20.95-23.5 21.43-23.75 21.9-24 21.9-24.8L21.9-24.8Q21.9-25.65 21.35-25.93 20.8-26.2 20.4-26.2Z" opacity="1" transform="matrix(1,0,0,1,0,0)" fill="#000000" class="wordmark-text-0" data-fill-palette-color="quaternary" id="text-0"></path></svg></g></svg></g><g transform="matrix(1,0,0,1,56.30044001357736,291.361315556583)"><svg viewBox="0 0 182.16582161461153 13.414808613263816" height="13.414808613263816" width="182.16582161461153"><g transform="matrix(1,0,0,1,0,0)"><svg width="182.16582161461153" viewBox="3.9 -25.45 350.31 25.8" height="13.414808613263816" data-palette-color="url(#b3ae3abb-4238-4149-9ed9-7a74bfdc1a4e)"></svg></g></svg></g></svg></g></svg></g><g></g></svg></g><defs></defs><mask id="21735f76-f029-41b2-a7d4-a2143f3ae8a2"><g id="SvgjsG1534"><svg viewBox="0 0 239.08148594093075 247.2" height="247.2" width="239.08148594093075"><g><svg viewBox="0 0 294.76670164176625 304.77612416984687" height="247.2" width="239.08148594093075"><g><svg viewBox="0 0 294.76670164176625 304.77612416984687" height="304.77612416984687" width="294.76670164176625"><g id="SvgjsG1533"><svg viewBox="0 0 294.76670164176625 304.77612416984687" height="304.77612416984687" width="294.76670164176625" id="SvgjsSvg1532"><g><svg viewBox="0 0 294.76670164176625 245.672304" height="245.672304" width="294.76670164176625"><path d="M294.077 52.692C292.691 27.191 288.741 20.102 288.741 20.102 276.616-6.164 261.483-0.502 247.889 3.272 223.888 3.425 199.983 9.035 176.037 12.044 125.776 12.503 75.085 4.955 25.073 23.57 20.375 29.282-4.874 24.692 0.836 55.956 2.332 68.961 7.792 83.395 7.626 95.329 8.374 97.42 9.413 92.626 9.857 95.635 11.409 103.744 13.945 99.919 16.024 104.713 13.127 117.515 15.206 128.174 17.188 139.343 13.695 142.25 9.219 140.873 7.21 150.513 7.002 157.5 5.88 156.174 4.646 155.868 3.746 155.664 1.93 156.429 2.235 158.622 3.275 166.119-1.188 170.454 1.612 177.798-0.315 185.755 2.942 192.64 2.499 201.259 2.443 202.993 2.748 204.472 3.233 204.88 5.381 207.073 2.249 211.357 2.582 215.998 24.615 247.721 48.52 225.791 71.094 240.377 76.955 230.177 72.549 243.998 74.891 241.856 76.72 239.357 78.05 249.71 80.115 243.845 80.434 242.162 79.949 238.184 81.085 238.949 81.681 239.357 82.208 239.255 82.291 236.909 82.415 233.39 81.321 235.583 81.03 233.747 84.175 224.465 83.399 246.548 86.351 245.63 86.212 242.927 85.353 239.051 87.113 239.561 88.859 235.685 88.915 232.472 90.467 241.193 90.522 243.08 90.799 244.406 91.243 245.324 96.093 235.838 100.915 248.69 106.001 244.406 109.119 239.714 112.112 246.956 115.272 245.171 116.38 243.743 117.503 241.193 118.57 245.477 131.638 246.395 145.565 242.57 157.953 245.63 191.059 239.918 226.438 247.976 261.345 240.428 269.576 237.521 278.126 233.39 286.15 230.075 286.15 230.075 292.649 220.997 292.649 180.196S294.035 144.495 294.243 112.007C294.451 79.519 295.421 78.193 294.035 52.692Z" opacity="1" fill="black"></path><g transform="matrix(1,0,0,1,55.76832,26.068561146666667)"><svg width="183.23006164176624" viewBox="1.2 -38.5 36.449999999999996 38.5" height="193.53518170666666" data-palette-color="#000000"><path d="M16.95-10.3L16.95 0 1.2 0 1.2-38.5 24.1-38.5Q27.3-38.5 29.98-37.35 32.65-36.2 34.25-33.65 35.85-31.1 35.85-26.85L35.85-26.85Q35.85-25.65 35.68-24.25 35.5-22.85 34.9-21.48 34.3-20.1 33.08-19.03 31.85-17.95 29.75-17.35L29.75-17.35 37.65 0 20.1 0 17.4-10.3 16.95-10.3ZM20.4-26.2L20.4-26.2 15.6-26.2 15.6-23.5 20.55-23.5Q20.95-23.5 21.43-23.75 21.9-24 21.9-24.8L21.9-24.8Q21.9-25.65 21.35-25.93 20.8-26.2 20.4-26.2Z" opacity="1" transform="matrix(1,0,0,1,0,0)" fill="black" class="wordmark-text-0" id="SvgjsPath1531"></path></svg></g></svg></g><g transform="matrix(1,0,0,1,56.30044001357736,291.361315556583)"><svg viewBox="0 0 182.16582161461153 13.414808613263816" height="13.414808613263816" width="182.16582161461153"><g transform="matrix(1,0,0,1,0,0)"><svg width="182.16582161461153" viewBox="3.9 -25.45 350.31 25.8" height="13.414808613263816" data-palette-color="url(#b3ae3abb-4238-4149-9ed9-7a74bfdc1a4e)"><path d="M19.75-9.45L18.1-9.45Q18.1-9.45 16.7-9.45 15.3-9.45 12.95-9.45 10.6-9.45 7.75-9.4L7.75-9.4 7.75 0 3.9 0 3.9-20.4Q3.9-21.85 4.53-22.4 5.15-22.95 6.6-23L6.6-23Q7.35-23.05 8.58-23.05 9.8-23.05 11.3-23.08 12.8-23.1 14.38-23.1 15.95-23.1 17.43-23.1 18.9-23.1 20.05-23.05 21.2-23 21.85-22.95L21.85-22.95Q24.45-22.7 25.65-21.23 26.85-19.75 26.85-16.85L26.85-16.85Q26.85-14.55 26.23-13.2 25.6-11.85 24.35-11.2L24.35-11.2Q24.2-11.05 23.88-10.98 23.55-10.9 23.2-10.9L23.2-10.9 23.2-10.8Q23.4-10.8 23.65-10.8 23.9-10.8 24.05-10.8L24.05-10.8Q25.95-10.45 26.35-9.28 26.75-8.1 26.75-6.9L26.75-6.9 26.75-1.2Q26.75-0.7 26.85-0.38 26.95-0.05 27 0L27 0 24.3 0Q23.6 0 23.2-0.25 22.8-0.5 22.8-1.45L22.8-1.45 22.8-6.75Q22.8-8.3 22.13-8.88 21.45-9.45 19.75-9.45L19.75-9.45ZM7.75-19.6L7.75-11.55Q8.45-11.55 9.95-11.53 11.45-11.5 13.23-11.5 15-11.5 16.5-11.5 18-11.5 18.7-11.5L18.7-11.5Q20.35-11.5 21.63-12.53 22.9-13.55 22.9-16.35L22.9-16.35Q22.9-18.25 22.18-19.38 21.45-20.5 19.85-20.7L19.85-20.7Q18.8-20.85 17.25-20.88 15.7-20.9 14.05-20.88 12.4-20.85 11-20.83 9.6-20.8 8.9-20.8L8.9-20.8Q8.75-20.8 8.25-20.63 7.75-20.45 7.75-19.6L7.75-19.6ZM42.05 0.3L42.05 0.3Q39.75 0.3 37.92-0.05 36.1-0.4 34.77-1.45 33.45-2.5 32.75-4.55 32.05-6.6 32.05-9.95L32.05-9.95Q32.05-13.3 32.75-15.35 33.45-17.4 34.77-18.45 36.1-19.5 37.92-19.85 39.75-20.2 42.05-20.2L42.05-20.2Q44.3-20.2 46.12-19.85 47.95-19.5 49.25-18.45 50.55-17.4 51.25-15.35 51.95-13.3 51.95-9.95L51.95-9.95Q51.95-6.55 51.25-4.5 50.55-2.45 49.25-1.43 47.95-0.4 46.12-0.05 44.3 0.3 42.05 0.3ZM42.05-1.65L42.05-1.65Q44.05-1.65 45.47-2.25 46.9-2.85 47.65-4.6 48.4-6.35 48.4-9.95L48.4-9.95Q48.4-13.55 47.65-15.3 46.9-17.05 45.47-17.65 44.05-18.25 42.05-18.25L42.05-18.25Q40.05-18.25 38.62-17.65 37.2-17.05 36.42-15.3 35.65-13.55 35.65-9.95L35.65-9.95Q35.65-6.35 36.42-4.6 37.2-2.85 38.62-2.25 40.05-1.65 42.05-1.65ZM60.65 0L58.6 0Q57.6 0 57.37-0.3 57.15-0.6 57.15-1.55L57.15-1.55 57.15-25.2 60.65-25.2 60.65-19.25Q61.2-19.5 62.27-19.63 63.35-19.75 64.52-19.85 65.7-19.95 66.7-19.95L66.7-19.95Q69.7-19.95 71.5-19.38 73.3-18.8 74.15-17.73 75-16.65 75.27-15.08 75.55-13.5 75.55-11.5L75.55-11.5 75.55-1.95Q75.55-1.1 75.42-0.68 75.3-0.25 74.95-0.13 74.59 0 73.9 0L73.9 0 72.15 0 72.15-12.3Q72.15-14.7 71.47-15.95 70.8-17.2 69.45-17.65 68.09-18.1 66.15-18.1L66.15-18.1Q65.4-18.1 64.32-18.03 63.25-17.95 62.22-17.8 61.2-17.65 60.65-17.4L60.65-17.4 60.65 0ZM89.79 0.35L89.79 0.35Q86.84 0.35 84.99 0.05 83.14-0.25 82.17-0.98 81.19-1.7 80.82-2.9 80.44-4.1 80.44-5.85L80.44-5.85Q80.44-8.4 81.04-9.75 81.64-11.1 83.14-11.6 84.64-12.1 87.14-12.1L87.14-12.1Q88.39-12.1 89.87-12.03 91.34-11.95 92.72-11.88 94.09-11.8 95.12-11.7 96.14-11.6 96.49-11.45L96.49-11.45Q96.49-13.75 96.09-15.1 95.69-16.45 94.87-17.1 94.04-17.75 92.82-17.95 91.59-18.15 89.99-18.15L89.99-18.15Q88.34-18.15 86.67-18.03 84.99-17.9 83.59-17.63 82.19-17.35 81.44-16.9L81.44-16.9 81.44-17.65Q81.44-18.7 82.07-19.13 82.69-19.55 83.49-19.7L83.49-19.7Q84.44-19.95 86.27-20.1 88.09-20.25 90.09-20.2L90.09-20.2Q92.64-20.2 94.47-19.95 96.29-19.7 97.49-18.88 98.69-18.05 99.29-16.4 99.89-14.75 99.89-11.9L99.89-11.9 99.89-1.6Q99.59-0.6 97.24-0.13 94.89 0.35 89.79 0.35ZM89.79-1.35L89.79-1.35Q92.09-1.35 93.47-1.5 94.84-1.65 95.57-1.9 96.29-2.15 96.49-2.55L96.49-2.55 96.49-10Q96.04-10.15 94.82-10.3 93.59-10.45 92.24-10.58 90.89-10.7 89.94-10.7L89.94-10.7Q87.79-10.7 86.47-10.45 85.14-10.2 84.57-9.2 83.99-8.2 83.99-6.1L83.99-6.1Q83.99-4.45 84.39-3.4 84.79-2.35 86.02-1.85 87.24-1.35 89.79-1.35ZM108.89 0L106.59 0Q105.44 0 105.44-1.2L105.44-1.2 105.44-18.5Q106.89-19.15 109.27-19.65 111.64-20.15 114.74-20.15L114.74-20.15Q117.64-20.15 119.44-19.75 121.24-19.35 122.19-18.55 123.14-17.75 123.47-16.48 123.79-15.2 123.79-13.4L123.79-13.4 123.79-1.5Q123.79-0.95 123.67-0.6 123.54-0.25 123.22-0.13 122.89 0 122.24 0L122.24 0 120.29 0 120.29-14.1Q120.29-16.1 118.99-17.05 117.69-18 114.74-18L114.74-18Q113.79-18 112.67-17.85 111.54-17.7 110.54-17.43 109.54-17.15 108.89-16.7L108.89-16.7 108.89 0ZM140.44-20.75L140.44-23 163.19-23 163.19-20.75 153.74-20.75 153.74-1.65Q153.74-0.7 153.51-0.35 153.28 0 152.39 0L152.39 0 149.94 0 149.94-20.75 140.44-20.75ZM170.78 0.2L170.78 0.2Q168.43 0.2 167.63-1.05 166.83-2.3 166.83-4.7L166.83-4.7 166.83-19.95 170.33-19.95 170.33-4.9Q170.33-2.85 170.78-2.15 171.23-1.45 172.38-1.45L172.38-1.45Q172.78-1.45 173.38-1.55 173.98-1.65 174.13-1.7L174.13-1.7 174.13-0.15Q173.98-0.1 173.56-0.03 173.13 0.05 172.46 0.13 171.78 0.2 170.78 0.2ZM168.63-22.85L168.63-22.85Q167.78-22.85 167.28-23.1 166.78-23.35 166.78-24.15L166.78-24.15Q166.78-24.95 167.26-25.2 167.73-25.45 168.58-25.45L168.58-25.45Q169.53-25.45 169.98-25.2 170.43-24.95 170.38-24.15L170.38-24.15Q170.38-23.35 169.93-23.1 169.48-22.85 168.63-22.85ZM181.03 0L179.03 0Q178.13 0 177.83-0.28 177.53-0.55 177.53-1.45L177.53-1.45 177.53-18.5Q177.93-18.65 178.68-18.9 179.43-19.15 180.48-19.43 181.53-19.7 182.91-19.88 184.28-20.05 185.93-20.05L185.93-20.05Q187.63-20.05 188.88-19.78 190.13-19.5 191.03-18.82 191.93-18.15 192.53-17L192.53-17 191.83-17Q192.23-17.85 192.98-18.48 193.73-19.1 194.73-19.45 195.73-19.8 196.81-19.95 197.88-20.1 198.88-20.1L198.88-20.1Q201.68-20.1 203.28-19.55 204.88-19 205.56-17.7 206.23-16.4 206.23-14.25L206.23-14.25 206.23-1.35Q206.23-0.55 205.93-0.28 205.63 0 204.83 0L204.83 0 202.73 0Q202.73-3.6 202.73-7.18 202.73-10.75 202.73-14.35L202.73-14.35Q202.73-16.55 201.66-17.38 200.58-18.2 198.48-18.2L198.48-18.2Q197.48-18.2 196.36-17.95 195.23-17.7 194.43-17.2 193.63-16.7 193.63-16.05L193.63-16.05 193.63 0 190.13 0 190.13-15.65Q190.13-16.7 188.91-17.43 187.68-18.15 185.78-18.15L185.78-18.15Q184.63-18.15 183.58-17.98 182.53-17.8 181.83-17.48 181.13-17.15 181.03-16.6L181.03-16.6 181.03 0ZM221.38 0.3L221.38 0.3Q218.48 0.3 216.5-0.1 214.53-0.5 213.35-1.6 212.18-2.7 211.65-4.67 211.13-6.65 211.13-9.8L211.13-9.8Q211.13-13.4 212.03-15.7 212.93-18 215.23-19.1 217.53-20.2 221.68-20.2L221.68-20.2Q224.88-20.2 226.8-19.35 228.73-18.5 229.6-16.75 230.48-15 230.48-12.2L230.48-12.2 230.48-9.35 216.38-9.35Q216.38-9.95 216.68-10.38 216.98-10.8 217.78-10.8L217.78-10.8 227.33-10.8 227.28-12.25Q227.23-15.35 225.95-16.75 224.68-18.15 221.53-18.15L221.53-18.15Q218.88-18.15 217.38-17.35 215.88-16.55 215.28-14.75 214.68-12.95 214.68-9.85L214.68-9.85Q214.68-6.55 215.35-4.83 216.03-3.1 217.63-2.48 219.23-1.85 221.98-1.85L221.98-1.85Q222.93-1.85 224.15-1.93 225.38-2 226.63-2.1 227.88-2.2 228.85-2.38 229.83-2.55 230.23-2.75L230.23-2.75 230.23-2.15Q230.23-1.65 229.95-1.2 229.68-0.75 228.83-0.45L228.83-0.45Q227.73 0 225.85 0.15 223.98 0.3 221.38 0.3ZM270.37 0L249.17 0 249.17-21.4Q249.17-22.3 249.42-22.65 249.67-23 250.52-23L250.52-23 270.37-23 270.37-20.8 253.02-20.8 253.02-13.15 268.92-13.15 268.92-10.95 253.02-10.95 253.02-2.2 270.37-2.2 270.37 0ZM278.77-17.3L278.77 0 276.57 0Q275.92 0 275.6-0.33 275.27-0.65 275.27-1.55L275.27-1.55 275.27-18.95Q276.37-19.3 278.3-19.7 280.22-20.1 283.07-20.1L283.07-20.1Q285.77-20.1 287.35-19.73 288.92-19.35 289.65-18.7 290.37-18.05 290.6-17.13 290.82-16.2 290.82-15.05L290.82-15.05 287.47-15.05 287.42-15.75Q287.37-16.9 286.67-17.43 285.97-17.95 285.02-18.07 284.07-18.2 283.12-18.2L283.12-18.2Q281.67-18.2 280.55-17.95 279.42-17.7 278.77-17.3L278.77-17.3ZM298.32-17.3L298.32 0 296.12 0Q295.47 0 295.14-0.33 294.82-0.65 294.82-1.55L294.82-1.55 294.82-18.95Q295.92-19.3 297.84-19.7 299.77-20.1 302.62-20.1L302.62-20.1Q305.32-20.1 306.89-19.73 308.47-19.35 309.19-18.7 309.92-18.05 310.14-17.13 310.37-16.2 310.37-15.05L310.37-15.05 307.02-15.05 306.97-15.75Q306.92-16.9 306.22-17.43 305.52-17.95 304.57-18.07 303.62-18.2 302.67-18.2L302.67-18.2Q301.22-18.2 300.09-17.95 298.97-17.7 298.32-17.3L298.32-17.3ZM323.57 0.3L323.57 0.3Q321.27 0.3 319.44-0.05 317.62-0.4 316.29-1.45 314.97-2.5 314.27-4.55 313.57-6.6 313.57-9.95L313.57-9.95Q313.57-13.3 314.27-15.35 314.97-17.4 316.29-18.45 317.62-19.5 319.44-19.85 321.27-20.2 323.57-20.2L323.57-20.2Q325.82-20.2 327.64-19.85 329.47-19.5 330.77-18.45 332.07-17.4 332.77-15.35 333.47-13.3 333.47-9.95L333.47-9.95Q333.47-6.55 332.77-4.5 332.07-2.45 330.77-1.43 329.47-0.4 327.64-0.05 325.82 0.3 323.57 0.3ZM323.57-1.65L323.57-1.65Q325.57-1.65 326.99-2.25 328.42-2.85 329.17-4.6 329.92-6.35 329.92-9.95L329.92-9.95Q329.92-13.55 329.17-15.3 328.42-17.05 326.99-17.65 325.57-18.25 323.57-18.25L323.57-18.25Q321.57-18.25 320.14-17.65 318.72-17.05 317.94-15.3 317.17-13.55 317.17-9.95L317.17-9.95Q317.17-6.35 317.94-4.6 318.72-2.85 320.14-2.25 321.57-1.65 323.57-1.65ZM342.16-17.3L342.16 0 339.96 0Q339.31 0 338.99-0.33 338.66-0.65 338.66-1.55L338.66-1.55 338.66-18.95Q339.76-19.3 341.69-19.7 343.61-20.1 346.46-20.1L346.46-20.1Q349.16-20.1 350.74-19.73 352.31-19.35 353.04-18.7 353.76-18.05 353.99-17.13 354.21-16.2 354.21-15.05L354.21-15.05 350.86-15.05 350.81-15.75Q350.76-16.9 350.06-17.43 349.36-17.95 348.41-18.07 347.46-18.2 346.51-18.2L346.51-18.2Q345.06-18.2 343.94-17.95 342.81-17.7 342.16-17.3L342.16-17.3Z" opacity="1" transform="matrix(1,0,0,1,0,0)" fill="white" class="slogan-text-1" id="SvgjsPath1530"></path></svg></g></svg></g></svg></g></svg></g><g></g></svg></g><defs><mask></mask></defs></svg><rect width="239.08148594093075" height="247.2" fill="black" stroke="none" visibility="hidden"></rect></g></mask><linearGradient x1="0" x2="1" y1="0.548" y2="0.55" id="b3ae3abb-4238-4149-9ed9-7a74bfdc1a4e"><stop stop-color="#ff6cab" offset="0"></stop><stop stop-color="#7366ff" offset="1"></stop></linearGradient><rect width="239.081624119776" height="247.2" fill="url(#b3ae3abb-4238-4149-9ed9-7a74bfdc1a4e)" mask="url(#21735f76-f029-41b2-a7d4-a2143f3ae8a2)" data-fill-palette-color="secondary"></rect><mask id="00cf6814-d3d4-4da8-bab8-393f19114a28"><g id="SvgjsG1553"><svg viewBox="0 0 239.08148594093075 247.2" height="247.2" width="239.08148594093075"><g><svg viewBox="0 0 294.76670164176625 304.77612416984687" height="247.2" width="239.08148594093075"><g><svg viewBox="0 0 294.76670164176625 304.77612416984687" height="304.77612416984687" width="294.76670164176625"><g id="SvgjsG1552"><svg viewBox="0 0 294.76670164176625 304.77612416984687" height="304.77612416984687" width="294.76670164176625" id="SvgjsSvg1551"><g><svg viewBox="0 0 294.76670164176625 245.672304" height="245.672304" width="294.76670164176625"><path d="M294.077 52.692C292.691 27.191 288.741 20.102 288.741 20.102 276.616-6.164 261.483-0.502 247.889 3.272 223.888 3.425 199.983 9.035 176.037 12.044 125.776 12.503 75.085 4.955 25.073 23.57 20.375 29.282-4.874 24.692 0.836 55.956 2.332 68.961 7.792 83.395 7.626 95.329 8.374 97.42 9.413 92.626 9.857 95.635 11.409 103.744 13.945 99.919 16.024 104.713 13.127 117.515 15.206 128.174 17.188 139.343 13.695 142.25 9.219 140.873 7.21 150.513 7.002 157.5 5.88 156.174 4.646 155.868 3.746 155.664 1.93 156.429 2.235 158.622 3.275 166.119-1.188 170.454 1.612 177.798-0.315 185.755 2.942 192.64 2.499 201.259 2.443 202.993 2.748 204.472 3.233 204.88 5.381 207.073 2.249 211.357 2.582 215.998 24.615 247.721 48.52 225.791 71.094 240.377 76.955 230.177 72.549 243.998 74.891 241.856 76.72 239.357 78.05 249.71 80.115 243.845 80.434 242.162 79.949 238.184 81.085 238.949 81.681 239.357 82.208 239.255 82.291 236.909 82.415 233.39 81.321 235.583 81.03 233.747 84.175 224.465 83.399 246.548 86.351 245.63 86.212 242.927 85.353 239.051 87.113 239.561 88.859 235.685 88.915 232.472 90.467 241.193 90.522 243.08 90.799 244.406 91.243 245.324 96.093 235.838 100.915 248.69 106.001 244.406 109.119 239.714 112.112 246.956 115.272 245.171 116.38 243.743 117.503 241.193 118.57 245.477 131.638 246.395 145.565 242.57 157.953 245.63 191.059 239.918 226.438 247.976 261.345 240.428 269.576 237.521 278.126 233.39 286.15 230.075 286.15 230.075 292.649 220.997 292.649 180.196S294.035 144.495 294.243 112.007C294.451 79.519 295.421 78.193 294.035 52.692Z" opacity="1" fill="white"></path><g transform="matrix(1,0,0,1,55.76832,26.068561146666667)"><svg width="183.23006164176624" viewBox="1.2 -38.5 36.449999999999996 38.5" height="193.53518170666666" data-palette-color="#000000"><path d="M16.95-10.3L16.95 0 1.2 0 1.2-38.5 24.1-38.5Q27.3-38.5 29.98-37.35 32.65-36.2 34.25-33.65 35.85-31.1 35.85-26.85L35.85-26.85Q35.85-25.65 35.68-24.25 35.5-22.85 34.9-21.48 34.3-20.1 33.08-19.03 31.85-17.95 29.75-17.35L29.75-17.35 37.65 0 20.1 0 17.4-10.3 16.95-10.3ZM20.4-26.2L20.4-26.2 15.6-26.2 15.6-23.5 20.55-23.5Q20.95-23.5 21.43-23.75 21.9-24 21.9-24.8L21.9-24.8Q21.9-25.65 21.35-25.93 20.8-26.2 20.4-26.2Z" opacity="1" transform="matrix(1,0,0,1,0,0)" fill="black" class="wordmark-text-0" id="SvgjsPath1550"></path></svg></g></svg></g><g transform="matrix(1,0,0,1,56.30044001357736,291.361315556583)"><svg viewBox="0 0 182.16582161461153 13.414808613263816" height="13.414808613263816" width="182.16582161461153"><g transform="matrix(1,0,0,1,0,0)"><svg width="182.16582161461153" viewBox="3.9 -25.45 350.31 25.8" height="13.414808613263816" data-palette-color="url(#b3ae3abb-4238-4149-9ed9-7a74bfdc1a4e)"></svg></g></svg></g></svg></g></svg></g><g></g></svg></g><defs><mask></mask></defs><mask><g id="SvgjsG1549"><svg viewBox="0 0 239.08148594093075 247.2" height="247.2" width="239.08148594093075"><g><svg viewBox="0 0 294.76670164176625 304.77612416984687" height="247.2" width="239.08148594093075"><g><svg viewBox="0 0 294.76670164176625 304.77612416984687" height="304.77612416984687" width="294.76670164176625"><g id="SvgjsG1548"><svg viewBox="0 0 294.76670164176625 304.77612416984687" height="304.77612416984687" width="294.76670164176625" id="SvgjsSvg1547"><g><svg viewBox="0 0 294.76670164176625 245.672304" height="245.672304" width="294.76670164176625"><path d="M294.077 52.692C292.691 27.191 288.741 20.102 288.741 20.102 276.616-6.164 261.483-0.502 247.889 3.272 223.888 3.425 199.983 9.035 176.037 12.044 125.776 12.503 75.085 4.955 25.073 23.57 20.375 29.282-4.874 24.692 0.836 55.956 2.332 68.961 7.792 83.395 7.626 95.329 8.374 97.42 9.413 92.626 9.857 95.635 11.409 103.744 13.945 99.919 16.024 104.713 13.127 117.515 15.206 128.174 17.188 139.343 13.695 142.25 9.219 140.873 7.21 150.513 7.002 157.5 5.88 156.174 4.646 155.868 3.746 155.664 1.93 156.429 2.235 158.622 3.275 166.119-1.188 170.454 1.612 177.798-0.315 185.755 2.942 192.64 2.499 201.259 2.443 202.993 2.748 204.472 3.233 204.88 5.381 207.073 2.249 211.357 2.582 215.998 24.615 247.721 48.52 225.791 71.094 240.377 76.955 230.177 72.549 243.998 74.891 241.856 76.72 239.357 78.05 249.71 80.115 243.845 80.434 242.162 79.949 238.184 81.085 238.949 81.681 239.357 82.208 239.255 82.291 236.909 82.415 233.39 81.321 235.583 81.03 233.747 84.175 224.465 83.399 246.548 86.351 245.63 86.212 242.927 85.353 239.051 87.113 239.561 88.859 235.685 88.915 232.472 90.467 241.193 90.522 243.08 90.799 244.406 91.243 245.324 96.093 235.838 100.915 248.69 106.001 244.406 109.119 239.714 112.112 246.956 115.272 245.171 116.38 243.743 117.503 241.193 118.57 245.477 131.638 246.395 145.565 242.57 157.953 245.63 191.059 239.918 226.438 247.976 261.345 240.428 269.576 237.521 278.126 233.39 286.15 230.075 286.15 230.075 292.649 220.997 292.649 180.196S294.035 144.495 294.243 112.007C294.451 79.519 295.421 78.193 294.035 52.692Z" opacity="1" fill="black"></path><g transform="matrix(1,0,0,1,55.76832,26.068561146666667)"><svg width="183.23006164176624" viewBox="1.2 -38.5 36.449999999999996 38.5" height="193.53518170666666" data-palette-color="#000000"><path d="M16.95-10.3L16.95 0 1.2 0 1.2-38.5 24.1-38.5Q27.3-38.5 29.98-37.35 32.65-36.2 34.25-33.65 35.85-31.1 35.85-26.85L35.85-26.85Q35.85-25.65 35.68-24.25 35.5-22.85 34.9-21.48 34.3-20.1 33.08-19.03 31.85-17.95 29.75-17.35L29.75-17.35 37.65 0 20.1 0 17.4-10.3 16.95-10.3ZM20.4-26.2L20.4-26.2 15.6-26.2 15.6-23.5 20.55-23.5Q20.95-23.5 21.43-23.75 21.9-24 21.9-24.8L21.9-24.8Q21.9-25.65 21.35-25.93 20.8-26.2 20.4-26.2Z" opacity="1" transform="matrix(1,0,0,1,0,0)" fill="black" class="wordmark-text-0" id="SvgjsPath1546"></path></svg></g></svg></g><g transform="matrix(1,0,0,1,56.30044001357736,291.361315556583)"><svg viewBox="0 0 182.16582161461153 13.414808613263816" height="13.414808613263816" width="182.16582161461153"><g transform="matrix(1,0,0,1,0,0)"><svg width="182.16582161461153" viewBox="3.9 -25.45 350.31 25.8" height="13.414808613263816" data-palette-color="url(#b3ae3abb-4238-4149-9ed9-7a74bfdc1a4e)"><path d="M19.75-9.45L18.1-9.45Q18.1-9.45 16.7-9.45 15.3-9.45 12.95-9.45 10.6-9.45 7.75-9.4L7.75-9.4 7.75 0 3.9 0 3.9-20.4Q3.9-21.85 4.53-22.4 5.15-22.95 6.6-23L6.6-23Q7.35-23.05 8.58-23.05 9.8-23.05 11.3-23.08 12.8-23.1 14.38-23.1 15.95-23.1 17.43-23.1 18.9-23.1 20.05-23.05 21.2-23 21.85-22.95L21.85-22.95Q24.45-22.7 25.65-21.23 26.85-19.75 26.85-16.85L26.85-16.85Q26.85-14.55 26.23-13.2 25.6-11.85 24.35-11.2L24.35-11.2Q24.2-11.05 23.88-10.98 23.55-10.9 23.2-10.9L23.2-10.9 23.2-10.8Q23.4-10.8 23.65-10.8 23.9-10.8 24.05-10.8L24.05-10.8Q25.95-10.45 26.35-9.28 26.75-8.1 26.75-6.9L26.75-6.9 26.75-1.2Q26.75-0.7 26.85-0.38 26.95-0.05 27 0L27 0 24.3 0Q23.6 0 23.2-0.25 22.8-0.5 22.8-1.45L22.8-1.45 22.8-6.75Q22.8-8.3 22.13-8.88 21.45-9.45 19.75-9.45L19.75-9.45ZM7.75-19.6L7.75-11.55Q8.45-11.55 9.95-11.53 11.45-11.5 13.23-11.5 15-11.5 16.5-11.5 18-11.5 18.7-11.5L18.7-11.5Q20.35-11.5 21.63-12.53 22.9-13.55 22.9-16.35L22.9-16.35Q22.9-18.25 22.18-19.38 21.45-20.5 19.85-20.7L19.85-20.7Q18.8-20.85 17.25-20.88 15.7-20.9 14.05-20.88 12.4-20.85 11-20.83 9.6-20.8 8.9-20.8L8.9-20.8Q8.75-20.8 8.25-20.63 7.75-20.45 7.75-19.6L7.75-19.6ZM42.05 0.3L42.05 0.3Q39.75 0.3 37.92-0.05 36.1-0.4 34.77-1.45 33.45-2.5 32.75-4.55 32.05-6.6 32.05-9.95L32.05-9.95Q32.05-13.3 32.75-15.35 33.45-17.4 34.77-18.45 36.1-19.5 37.92-19.85 39.75-20.2 42.05-20.2L42.05-20.2Q44.3-20.2 46.12-19.85 47.95-19.5 49.25-18.45 50.55-17.4 51.25-15.35 51.95-13.3 51.95-9.95L51.95-9.95Q51.95-6.55 51.25-4.5 50.55-2.45 49.25-1.43 47.95-0.4 46.12-0.05 44.3 0.3 42.05 0.3ZM42.05-1.65L42.05-1.65Q44.05-1.65 45.47-2.25 46.9-2.85 47.65-4.6 48.4-6.35 48.4-9.95L48.4-9.95Q48.4-13.55 47.65-15.3 46.9-17.05 45.47-17.65 44.05-18.25 42.05-18.25L42.05-18.25Q40.05-18.25 38.62-17.65 37.2-17.05 36.42-15.3 35.65-13.55 35.65-9.95L35.65-9.95Q35.65-6.35 36.42-4.6 37.2-2.85 38.62-2.25 40.05-1.65 42.05-1.65ZM60.65 0L58.6 0Q57.6 0 57.37-0.3 57.15-0.6 57.15-1.55L57.15-1.55 57.15-25.2 60.65-25.2 60.65-19.25Q61.2-19.5 62.27-19.63 63.35-19.75 64.52-19.85 65.7-19.95 66.7-19.95L66.7-19.95Q69.7-19.95 71.5-19.38 73.3-18.8 74.15-17.73 75-16.65 75.27-15.08 75.55-13.5 75.55-11.5L75.55-11.5 75.55-1.95Q75.55-1.1 75.42-0.68 75.3-0.25 74.95-0.13 74.59 0 73.9 0L73.9 0 72.15 0 72.15-12.3Q72.15-14.7 71.47-15.95 70.8-17.2 69.45-17.65 68.09-18.1 66.15-18.1L66.15-18.1Q65.4-18.1 64.32-18.03 63.25-17.95 62.22-17.8 61.2-17.65 60.65-17.4L60.65-17.4 60.65 0ZM89.79 0.35L89.79 0.35Q86.84 0.35 84.99 0.05 83.14-0.25 82.17-0.98 81.19-1.7 80.82-2.9 80.44-4.1 80.44-5.85L80.44-5.85Q80.44-8.4 81.04-9.75 81.64-11.1 83.14-11.6 84.64-12.1 87.14-12.1L87.14-12.1Q88.39-12.1 89.87-12.03 91.34-11.95 92.72-11.88 94.09-11.8 95.12-11.7 96.14-11.6 96.49-11.45L96.49-11.45Q96.49-13.75 96.09-15.1 95.69-16.45 94.87-17.1 94.04-17.75 92.82-17.95 91.59-18.15 89.99-18.15L89.99-18.15Q88.34-18.15 86.67-18.03 84.99-17.9 83.59-17.63 82.19-17.35 81.44-16.9L81.44-16.9 81.44-17.65Q81.44-18.7 82.07-19.13 82.69-19.55 83.49-19.7L83.49-19.7Q84.44-19.95 86.27-20.1 88.09-20.25 90.09-20.2L90.09-20.2Q92.64-20.2 94.47-19.95 96.29-19.7 97.49-18.88 98.69-18.05 99.29-16.4 99.89-14.75 99.89-11.9L99.89-11.9 99.89-1.6Q99.59-0.6 97.24-0.13 94.89 0.35 89.79 0.35ZM89.79-1.35L89.79-1.35Q92.09-1.35 93.47-1.5 94.84-1.65 95.57-1.9 96.29-2.15 96.49-2.55L96.49-2.55 96.49-10Q96.04-10.15 94.82-10.3 93.59-10.45 92.24-10.58 90.89-10.7 89.94-10.7L89.94-10.7Q87.79-10.7 86.47-10.45 85.14-10.2 84.57-9.2 83.99-8.2 83.99-6.1L83.99-6.1Q83.99-4.45 84.39-3.4 84.79-2.35 86.02-1.85 87.24-1.35 89.79-1.35ZM108.89 0L106.59 0Q105.44 0 105.44-1.2L105.44-1.2 105.44-18.5Q106.89-19.15 109.27-19.65 111.64-20.15 114.74-20.15L114.74-20.15Q117.64-20.15 119.44-19.75 121.24-19.35 122.19-18.55 123.14-17.75 123.47-16.48 123.79-15.2 123.79-13.4L123.79-13.4 123.79-1.5Q123.79-0.95 123.67-0.6 123.54-0.25 123.22-0.13 122.89 0 122.24 0L122.24 0 120.29 0 120.29-14.1Q120.29-16.1 118.99-17.05 117.69-18 114.74-18L114.74-18Q113.79-18 112.67-17.85 111.54-17.7 110.54-17.43 109.54-17.15 108.89-16.7L108.89-16.7 108.89 0ZM140.44-20.75L140.44-23 163.19-23 163.19-20.75 153.74-20.75 153.74-1.65Q153.74-0.7 153.51-0.35 153.28 0 152.39 0L152.39 0 149.94 0 149.94-20.75 140.44-20.75ZM170.78 0.2L170.78 0.2Q168.43 0.2 167.63-1.05 166.83-2.3 166.83-4.7L166.83-4.7 166.83-19.95 170.33-19.95 170.33-4.9Q170.33-2.85 170.78-2.15 171.23-1.45 172.38-1.45L172.38-1.45Q172.78-1.45 173.38-1.55 173.98-1.65 174.13-1.7L174.13-1.7 174.13-0.15Q173.98-0.1 173.56-0.03 173.13 0.05 172.46 0.13 171.78 0.2 170.78 0.2ZM168.63-22.85L168.63-22.85Q167.78-22.85 167.28-23.1 166.78-23.35 166.78-24.15L166.78-24.15Q166.78-24.95 167.26-25.2 167.73-25.45 168.58-25.45L168.58-25.45Q169.53-25.45 169.98-25.2 170.43-24.95 170.38-24.15L170.38-24.15Q170.38-23.35 169.93-23.1 169.48-22.85 168.63-22.85ZM181.03 0L179.03 0Q178.13 0 177.83-0.28 177.53-0.55 177.53-1.45L177.53-1.45 177.53-18.5Q177.93-18.65 178.68-18.9 179.43-19.15 180.48-19.43 181.53-19.7 182.91-19.88 184.28-20.05 185.93-20.05L185.93-20.05Q187.63-20.05 188.88-19.78 190.13-19.5 191.03-18.82 191.93-18.15 192.53-17L192.53-17 191.83-17Q192.23-17.85 192.98-18.48 193.73-19.1 194.73-19.45 195.73-19.8 196.81-19.95 197.88-20.1 198.88-20.1L198.88-20.1Q201.68-20.1 203.28-19.55 204.88-19 205.56-17.7 206.23-16.4 206.23-14.25L206.23-14.25 206.23-1.35Q206.23-0.55 205.93-0.28 205.63 0 204.83 0L204.83 0 202.73 0Q202.73-3.6 202.73-7.18 202.73-10.75 202.73-14.35L202.73-14.35Q202.73-16.55 201.66-17.38 200.58-18.2 198.48-18.2L198.48-18.2Q197.48-18.2 196.36-17.95 195.23-17.7 194.43-17.2 193.63-16.7 193.63-16.05L193.63-16.05 193.63 0 190.13 0 190.13-15.65Q190.13-16.7 188.91-17.43 187.68-18.15 185.78-18.15L185.78-18.15Q184.63-18.15 183.58-17.98 182.53-17.8 181.83-17.48 181.13-17.15 181.03-16.6L181.03-16.6 181.03 0ZM221.38 0.3L221.38 0.3Q218.48 0.3 216.5-0.1 214.53-0.5 213.35-1.6 212.18-2.7 211.65-4.67 211.13-6.65 211.13-9.8L211.13-9.8Q211.13-13.4 212.03-15.7 212.93-18 215.23-19.1 217.53-20.2 221.68-20.2L221.68-20.2Q224.88-20.2 226.8-19.35 228.73-18.5 229.6-16.75 230.48-15 230.48-12.2L230.48-12.2 230.48-9.35 216.38-9.35Q216.38-9.95 216.68-10.38 216.98-10.8 217.78-10.8L217.78-10.8 227.33-10.8 227.28-12.25Q227.23-15.35 225.95-16.75 224.68-18.15 221.53-18.15L221.53-18.15Q218.88-18.15 217.38-17.35 215.88-16.55 215.28-14.75 214.68-12.95 214.68-9.85L214.68-9.85Q214.68-6.55 215.35-4.83 216.03-3.1 217.63-2.48 219.23-1.85 221.98-1.85L221.98-1.85Q222.93-1.85 224.15-1.93 225.38-2 226.63-2.1 227.88-2.2 228.85-2.38 229.83-2.55 230.23-2.75L230.23-2.75 230.23-2.15Q230.23-1.65 229.95-1.2 229.68-0.75 228.83-0.45L228.83-0.45Q227.73 0 225.85 0.15 223.98 0.3 221.38 0.3ZM270.37 0L249.17 0 249.17-21.4Q249.17-22.3 249.42-22.65 249.67-23 250.52-23L250.52-23 270.37-23 270.37-20.8 253.02-20.8 253.02-13.15 268.92-13.15 268.92-10.95 253.02-10.95 253.02-2.2 270.37-2.2 270.37 0ZM278.77-17.3L278.77 0 276.57 0Q275.92 0 275.6-0.33 275.27-0.65 275.27-1.55L275.27-1.55 275.27-18.95Q276.37-19.3 278.3-19.7 280.22-20.1 283.07-20.1L283.07-20.1Q285.77-20.1 287.35-19.73 288.92-19.35 289.65-18.7 290.37-18.05 290.6-17.13 290.82-16.2 290.82-15.05L290.82-15.05 287.47-15.05 287.42-15.75Q287.37-16.9 286.67-17.43 285.97-17.95 285.02-18.07 284.07-18.2 283.12-18.2L283.12-18.2Q281.67-18.2 280.55-17.95 279.42-17.7 278.77-17.3L278.77-17.3ZM298.32-17.3L298.32 0 296.12 0Q295.47 0 295.14-0.33 294.82-0.65 294.82-1.55L294.82-1.55 294.82-18.95Q295.92-19.3 297.84-19.7 299.77-20.1 302.62-20.1L302.62-20.1Q305.32-20.1 306.89-19.73 308.47-19.35 309.19-18.7 309.92-18.05 310.14-17.13 310.37-16.2 310.37-15.05L310.37-15.05 307.02-15.05 306.97-15.75Q306.92-16.9 306.22-17.43 305.52-17.95 304.57-18.07 303.62-18.2 302.67-18.2L302.67-18.2Q301.22-18.2 300.09-17.95 298.97-17.7 298.32-17.3L298.32-17.3ZM323.57 0.3L323.57 0.3Q321.27 0.3 319.44-0.05 317.62-0.4 316.29-1.45 314.97-2.5 314.27-4.55 313.57-6.6 313.57-9.95L313.57-9.95Q313.57-13.3 314.27-15.35 314.97-17.4 316.29-18.45 317.62-19.5 319.44-19.85 321.27-20.2 323.57-20.2L323.57-20.2Q325.82-20.2 327.64-19.85 329.47-19.5 330.77-18.45 332.07-17.4 332.77-15.35 333.47-13.3 333.47-9.95L333.47-9.95Q333.47-6.55 332.77-4.5 332.07-2.45 330.77-1.43 329.47-0.4 327.64-0.05 325.82 0.3 323.57 0.3ZM323.57-1.65L323.57-1.65Q325.57-1.65 326.99-2.25 328.42-2.85 329.17-4.6 329.92-6.35 329.92-9.95L329.92-9.95Q329.92-13.55 329.17-15.3 328.42-17.05 326.99-17.65 325.57-18.25 323.57-18.25L323.57-18.25Q321.57-18.25 320.14-17.65 318.72-17.05 317.94-15.3 317.17-13.55 317.17-9.95L317.17-9.95Q317.17-6.35 317.94-4.6 318.72-2.85 320.14-2.25 321.57-1.65 323.57-1.65ZM342.16-17.3L342.16 0 339.96 0Q339.31 0 338.99-0.33 338.66-0.65 338.66-1.55L338.66-1.55 338.66-18.95Q339.76-19.3 341.69-19.7 343.61-20.1 346.46-20.1L346.46-20.1Q349.16-20.1 350.74-19.73 352.31-19.35 353.04-18.7 353.76-18.05 353.99-17.13 354.21-16.2 354.21-15.05L354.21-15.05 350.86-15.05 350.81-15.75Q350.76-16.9 350.06-17.43 349.36-17.95 348.41-18.07 347.46-18.2 346.51-18.2L346.51-18.2Q345.06-18.2 343.94-17.95 342.81-17.7 342.16-17.3L342.16-17.3Z" opacity="1" transform="matrix(1,0,0,1,0,0)" fill="black" class="slogan-text-1" id="SvgjsPath1545"></path></svg></g></svg></g></svg></g></svg></g><g></g></svg></g><defs><mask></mask></defs></svg><rect width="239.08148594093075" height="247.2" fill="black" stroke="none" visibility="hidden"></rect></g></mask></svg><rect width="239.08148594093075" height="247.2" fill="black" stroke="none" visibility="hidden"></rect></g></mask><linearGradient x1="0" x2="1" y1="0.548" y2="0.55" id="d48c0d43-6f7f-4e72-a9fa-c895f7f4cf90"><stop stop-color="#ff6cab" offset="0"></stop><stop stop-color="#7366ff" offset="1"></stop></linearGradient></svg><rect width="239.08148594093075" height="247.2" fill="none" stroke="none" visibility="hidden"></rect></g></svg></g></svg>